<svg version="1.1" viewBox="0.000000 0.000000 96.000000 96.000000" xmlns="http://www.w3.org/2000/svg" xmlns:xlink="http://www.w3.org/1999/xlink" id="Icons_MagnifyingGlass" overflow="hidden"><path d=" M 85.500000 75.599998 L 73.000000 63.099998 C 71.300003 61.400002 69.000000 60.799999 66.800003 61.200001 L 62.400002 56.799999 C 66.300003 51.799999 68.599998 45.400002 68.599998 38.599998 C 68.599998 22.100000 55.099998 8.600000 38.599998 8.600000 C 22.100000 8.600000 8.600000 22.100000 8.600000 38.599998 C 8.600000 55.099998 22.100000 68.599998 38.599998 68.599998 C 45.400002 68.599998 51.700001 66.300003 56.799999 62.400002 L 61.200001 66.800003 C 60.799999 69.000000 61.400002 71.300003 63.099998 73.000000 L 75.599998 85.500000 C 77.000000 86.900002 78.800003 87.599998 80.599998 87.599998 C 82.400002 87.599998 84.199997 86.900002 85.599998 85.500000 C 88.199997 82.699997 88.199997 78.300003 85.500000 75.599998 Z M 38.500000 62.500000 C 25.299999 62.500000 14.500000 51.700001 14.500000 38.500000 C 14.500000 25.299999 25.299999 14.500000 38.500000 14.500000 C 51.700001 14.500000 62.500000 25.299999 62.500000 38.500000 C 62.500000 51.700001 51.700001 62.500000 38.500000 62.500000 Z" stroke="none" stroke-width="1.000000" stroke-linecap="butt" fill="#FFF8E8" fill-opacity="1.000000"/></svg>